<svg aria-hidden="true" style="position: absolute; width: 0; height: 0; overflow: hidden;" version="1.1" xmlns="http://www.w3.org/2000/svg" xmlns:xlink="http://www.w3.org/1999/xlink">
<defs>
<symbol id="menu-icon" viewBox="0 0 32 32">
<path d="M0 2h32v4h-32zM6 8h20v4h-20zM6 20h20v4h-20zM0 14h32v4h-32zM0 26h32v4h-32z"></path>
</symbol>
<symbol id="arrow-icon" viewBox="0 0 32 32">
<path d="M18.72 3.721c6.718 3.904 12.8 10.037 12.96 10.315 0.32 0.283 0.32 0.56 0.32 0.981 0 0.277-0.162 0.697-0.32 0.974-0.16 0.279-6.4 6.411-12.96 10.315-0.482 0.279-1.12 0.279-1.758 0.142-0.48-0.277-0.962-0.697-0.962-1.257v-5.159s-13.92-0.695-14.562-1.115c-0.8-0.837-1.438-2.505-1.438-4.041s0.638-3.067 1.438-3.627c0.642-0.279 14.562-1.253 14.562-1.253v-5.159c0-0.56 0.32-0.974 0.962-1.257 0.475-0.279 1.12-0.137 1.755 0.142z"></path>
</symbol>
<symbol id="cart-icon" viewBox="0 0 32 32">
<path d="M1.333 2.667c-0.733 0-1.333 0.6-1.333 1.333s0.6 1.333 1.333 1.333h2.959l3.5 14c0.296 1.187 1.36 2 2.583 2h15.292c1.203 0 2.224-0.797 2.541-1.959l3.459-12.708h-22.333l0.667 2.667h18.208l-2.541 9.333h-15.292l-3.5-14c-0.298-1.158-1.333-2-2.564-2-0.006 0-0.012 0-0.018 0h-2.959zM24 21.333c-2.193 0-4 1.807-4 4s1.807 4 4 4 4-1.807 4-4-1.807-4-4-4zM12 21.333c-2.193 0-4 1.807-4 4s1.807 4 4 4 4-1.807 4-4-1.807-4-4-4zM12 24c0.751 0 1.333 0.584 1.333 1.333 0 0.751-0.584 1.333-1.333 1.333-0.751 0-1.333-0.584-1.333-1.333 0-0.751 0.584-1.333 1.333-1.333zM24 24c0.751 0 1.333 0.584 1.333 1.333 0 0.751-0.584 1.333-1.333 1.333-0.751 0-1.333-0.584-1.333-1.333 0-0.751 0.584-1.333 1.333-1.333z"></path>
</symbol>
<symbol id="facebook-icon" viewBox="0 0 32 32">
<path  d="M19.458 28v-8.718h2.956l0.441-3.314h-3.397v-2.146c0-0.978 0.267-1.643 1.685-1.643h1.856v-3.052c-0.777-0.082-1.679-0.128-2.592-0.128-0.024 0-0.047 0-0.071 0h0.004c-2.61 0-4.373 1.588-4.373 4.468v2.501h-2.967v3.314h2.965l-0.005 8.718h-9.959c-1.093 0-2-0.907-2-2v-20c0-1.093 0.907-2 2-2h20c1.093 0 2 0.907 2 2v20c0 1.093-0.907 2-2 2h-6.542z"></path>
</symbol>
<symbol id="instagram-icon" viewBox="0 0 32 32">
<path d="M4 10.926c0-3.825 3.101-6.926 6.926-6.926v0h10.148c3.825 0 6.926 3.101 6.926 6.926v0 10.148c0 3.825-3.101 6.926-6.926 6.926h-10.148c-3.825 0-6.926-3.101-6.926-6.926v-10.148zM6.172 11.132v9.735c0 2.743 2.222 4.96 4.96 4.96h9.735c2.743 0 4.96-2.222 4.96-4.96v-9.735c0-2.743-2.222-4.96-4.96-4.96h-9.735c-0.001 0-0.002 0-0.004 0-2.737 0-4.956 2.219-4.956 4.956 0 0.001 0 0.002 0 0.004v-0zM16 22.103c-3.371 0-6.103-2.732-6.103-6.103s2.732-6.103 6.103-6.103v0c3.371 0 6.103 2.732 6.103 6.103s-2.732 6.103-6.103 6.103v0zM16 19.931c0.025 0.001 0.054 0.001 0.084 0.001 2.171 0 3.931-1.76 3.931-3.931s-1.76-3.931-3.931-3.931c-0.029 0-0.059 0-0.088 0.001l0.004-0c-2.171 0-3.931 1.76-3.931 3.931s1.76 3.931 3.931 3.931v0zM22.311 11.035c-0.8 0-1.449-0.649-1.449-1.449s0.649-1.449 1.449-1.449v0c0.8 0 1.449 0.649 1.449 1.449s-0.649 1.449-1.449 1.449v0z"></path>
</symbol>
<symbol id="letter-icon" viewBox="0 0 32 32">
<path d="M26.797 2.604c-0.083-0.065-0.188-0.104-0.303-0.104-0.086 0-0.168 0.022-0.238 0.061l0.003-0.001-24 13c-0.155 0.085-0.258 0.247-0.258 0.433 0 0.017 0.001 0.033 0.002 0.049l-0-0.002c0.018 0.199 0.152 0.363 0.334 0.424l0.003 0.001 6.823 2.227-0.661 6.754c-0.002 0.015-0.003 0.033-0.003 0.051 0 0.201 0.121 0.374 0.294 0.45l0.003 0.001c0.058 0.026 0.127 0.042 0.198 0.042 0.147 0 0.279-0.064 0.369-0.166l0-0 4.305-4.862 6.477 6.387c0.090 0.088 0.213 0.142 0.349 0.142 0.048 0 0.094-0.007 0.138-0.019l-0.003 0.001c0.171-0.049 0.302-0.183 0.345-0.353l0.001-0.003 5.999-24c0.009-0.036 0.015-0.078 0.015-0.12 0-0.159-0.075-0.3-0.191-0.391l-0.001-0.001zM10.167 18.601l9.755-7.89-6.648 9.206-3.639 4.107 0.532-5.425z"></path>
</symbol>
<symbol id="pinterest-icon" viewBox="0 0 32 32">
<path d="M16 4c-0.003 0-0.006 0-0.009 0-6.626 0-11.998 5.372-11.998 11.998 0 5.056 3.128 9.382 7.554 11.148l0.081 0.029c-0.107-0.949-0.203-2.405 0.039-3.445l1.406-5.964s-0.356-0.718-0.356-1.781c0-1.668 0.965-2.914 2.169-2.914 1.022 0 1.52 0.77 1.52 1.691 0 1.031-0.658 2.571-0.996 3.996-0.283 1.196 0.601 2.169 1.776 2.169 2.133 0 3.774-2.251 3.774-5.497 0-2.871-2.062-4.878-5.013-4.878-3.413 0-5.417 2.558-5.417 5.207 0 1.031 0.398 2.137 0.894 2.738 0.059 0.064 0.095 0.15 0.095 0.245 0 0.035-0.005 0.069-0.014 0.101l0.001-0.003-0.332 1.36c-0.053 0.222-0.174 0.27-0.402 0.16-1.5-0.695-2.437-2.887-2.437-4.649 0-3.785 2.75-7.26 7.929-7.26 4.165 0 7.399 2.964 7.399 6.933 0 4.132-2.61 7.461-6.226 7.461-1.216 0-2.361-0.629-2.75-1.376l-0.75 2.852c-0.27 1.044-1.001 2.347-1.493 3.145 1.064 0.342 2.287 0.539 3.557 0.539 6.626 0 11.998-5.372 11.998-11.998 0-0.002 0-0.004 0-0.007v0c0-0.001 0-0.001 0-0.002 0-6.626-5.372-11.998-11.998-11.998-0.001 0-0.001 0-0.002 0h0z"></path>
</symbol>
<symbol id="twitter-icon" viewBox="0 0 32 32">
<path d="M28 8.313c-0.884 0.391-1.831 0.658-2.827 0.773 1.017-0.617 1.781-1.563 2.152-2.689l0.010-0.035c-0.899 0.543-1.945 0.958-3.060 1.186l-0.064 0.011c-0.901-0.962-2.179-1.561-3.596-1.561-2.72 0-4.924 2.205-4.924 4.924 0 0.398 0.047 0.786 0.137 1.157l-0.007-0.034c-4.103-0.208-7.712-2.158-10.129-5.12l-0.020-0.025c-0.427 0.729-0.668 1.575-0.668 2.478 0 1.707 0.866 3.214 2.19 4.098-0.823-0.027-1.587-0.253-2.254-0.631l0.024 0.013v0.064c0 2.386 1.694 4.379 3.948 4.827-0.389 0.111-0.837 0.175-1.299 0.175-0.327 0-0.646-0.032-0.955-0.093l0.031 0.005c0.648 1.971 2.453 3.378 4.592 3.422l0.005 0c-1.662 1.313-3.787 2.106-6.097 2.106-0.42 0-0.834-0.026-1.24-0.077l0.048 0.005c2.129 1.389 4.735 2.215 7.534 2.215 0.004 0 0.009 0 0.013 0h-0.001c9.058 0 14.012-7.502 14.012-14.012 0-0.21-0.009-0.427-0.018-0.636 0.967-0.705 1.783-1.548 2.436-2.511l0.023-0.035z"></path>
</symbol>
<symbol id="youtube-icon" viewBox="0 0 32 32">
<path d="M16 6c3.765 0 7.093 0.391 9.125 0.688 1.68 0.245 3.035 1.511 3.342 3.188 0.267 1.429 0.533 3.52 0.533 6.124s-0.27 4.693-0.533 6.124c-0.322 1.666-1.653 2.945-3.321 3.185l-0.021 0.003c-2.732 0.424-5.893 0.674-9.11 0.688l-0.015 0c-3.746 0-7.086-0.391-9.125-0.688-1.689-0.242-3.020-1.522-3.338-3.163l-0.004-0.025c-0.341-1.81-0.535-3.892-0.535-6.020 0-0.037 0-0.073 0-0.11v0.006c0-2.613 0.27-4.699 0.533-6.124 0.323-1.665 1.654-2.944 3.321-3.185l0.021-0.003c2.734-0.425 5.896-0.675 9.113-0.688l0.014-0zM12.999 10.281v11.438l1.5-0.844 7.001-4 1.5-0.875-1.5-0.875-7.001-4-1.5-0.844z"></path>
</symbol>
</defs>
</svg>
